<svg width="128" height="128" viewBox="0 0 128 128" xmlns="http://www.w3.org/2000/svg"><title>Baseball</title><g fill="none" fill-rule="evenodd"><circle fill="#FFFDF8" cx="64" cy="64" r="64"/><path d="M23.438 98.686l-4.767-11.04c.91-.388 1.805-.865 2.655-1.42l6.518 10.107c-1.407.91-2.89 1.7-4.405 2.353zm10.057-6.955l-8.53-8.477c.75-.754 1.48-1.58 2.193-2.48l9.448 7.435c-.982 1.25-2.03 2.433-3.11 3.523zm6.93-9.138l-10.337-6.14c.585-.988 1.154-2.03 1.703-3.14l10.76 5.38c-.69 1.374-1.395 2.677-2.124 3.9zm4.78-9.837L34.04 68.28c.453-1.12.89-2.288 1.315-3.502l11.348 3.972c-.485 1.39-.982 2.722-1.5 4.005zm3.398-10.787l-11.865-1.952c.156-.96.24-1.99.252-3.067l12.026.103c-.016 1.696-.152 3.347-.413 4.915zm-12.02-10.054c-.178-1.174-.406-2.357-.67-3.543l11.744-2.593c.32 1.45.597 2.902.814 4.333l-11.888 1.804zm-2.066-9.087l-.97-3.45 5.684-1.998 5.79-1.64-5.79 1.64 5.89-1.28.994 3.552-11.597 3.175zm-2.694-9.773c-.356-1.407-.68-2.802-.962-4.185l11.783-2.398c.244 1.2.53 2.41.837 3.628l-11.657 2.954zm-1.908-10.93c-.056-.81-.084-1.613-.084-2.402 0-.838.033-1.664.097-2.486l11.99.958c-.04.506-.06 1.01-.06 1.528 0 .525.02 1.058.056 1.6l-11.998.8zm92.546 44.482l-9.997-6.68c.614-.925 1.175-1.863 1.656-2.82l10.742 5.41c-.682 1.352-1.488 2.727-2.4 4.09zm-7.103 8.57l-8.59-8.418c.862-.874 1.692-1.772 2.485-2.682l9.068 7.897c-.946 1.086-1.94 2.153-2.963 3.203zm-7.672 7.163l-7.913-9.052c.966-.846 1.932-1.708 2.894-2.586l8.114 8.88c-1.027.937-2.065 1.86-3.095 2.757zm-7.452 6.53l-8.093-8.896c.99-.898 2.032-1.816 3.11-2.75l7.885 9.08c-1.006.873-1.98 1.727-2.902 2.565zm-5.908 6.216l-9.974-6.718c.823-1.223 1.837-2.477 3.1-3.84l8.823 8.173c-.826.89-1.48 1.693-1.948 2.386zm-3.817 8.182L79.565 98.28l1.652-3.64 10.96 4.956-1.67 3.672zm-4.164 9.135L75.408 107.4l1.664-3.64 10.943 4.987-1.67 3.656zm-4.173 9.063l-10.947-4.974 1.676-3.628 10.926 5.02-1.655 3.582zM126.872 51.974h-10.94s-.098 1.36-.294 2.27l11.757 2.072c.032-.15.062-.303.09-.462-.164-1.306-.37-2.6-.613-3.88zm-115.427 48.56l-.14-11.46c1.15 0 2.143-.077 3.1-.217l1.78 11.893c-1.42.214-2.88.33-4.343.347-.133-.187-.266-.375-.397-.563zm20.762-92.09c-.18.378-.352.763-.512 1.152l11.128 4.566c.333-.814.745-1.56 1.263-2.28l-7.802-5.586c-1.387.668-2.747 1.384-4.077 2.147z" fill="#E8502A"/><path d="M64 122c32.033 0 58-25.967 58-58S96.033 6 64 6 6 31.967 6 64s25.967 58 58 58zm0 6C28.654 128 0 99.346 0 64 0 28.654 28.654 0 64 0c35.346 0 64 28.654 64 64 0 35.346-28.654 64-64 64z" fill="#585753"/></g></svg>